<svg width="18" height="23" viewBox="0 0 18 23" fill="none" xmlns="http://www.w3.org/2000/svg">
<path d="M14.7966 12.3008C14.8074 11.4662 15.0291 10.6478 15.4411 9.92182C15.8532 9.19587 16.4421 8.58593 17.1532 8.14876C16.7015 7.5036 16.1055 6.97266 15.4127 6.5981C14.7199 6.22355 13.9492 6.01571 13.162 5.99108C11.4828 5.81482 9.85486 6.99591 8.99915 6.99591C8.12688 6.99591 6.80938 6.00858 5.39065 6.03777C4.47297 6.06742 3.57863 6.33427 2.79475 6.81233C2.01087 7.29039 1.36419 7.96335 0.917727 8.76564C-1.01627 12.1141 0.426316 17.0351 2.27893 19.7417C3.20583 21.0671 4.28911 22.5475 5.70656 22.495C7.09362 22.4375 7.61166 21.6105 9.28596 21.6105C10.9447 21.6105 11.4307 22.495 12.877 22.4616C14.3653 22.4375 15.3031 21.1304 16.1975 19.7925C16.8634 18.8481 17.3759 17.8044 17.7159 16.7C16.8512 16.3343 16.1133 15.7221 15.5941 14.9398C15.075 14.1575 14.7977 13.2397 14.7966 12.3008Z" fill="white"/>
<path d="M12.065 4.21083C12.8766 3.23663 13.2764 1.98445 13.1796 0.720215C11.9397 0.850435 10.7945 1.44299 9.97199 2.37982C9.56984 2.83749 9.26185 3.36993 9.0656 3.9467C8.86936 4.52347 8.78871 5.13326 8.82828 5.74121C9.44842 5.7476 10.0619 5.61319 10.6226 5.3481C11.1832 5.08301 11.6765 4.69416 12.065 4.21083Z" fill="white"/>
</svg>
