<svg width="25" height="26" viewBox="0 0 25 26" fill="none" xmlns="http://www.w3.org/2000/svg">
<path d="M1.43518 0.537932C1.10727 0.930002 0.941697 1.43262 0.972384 1.94282V24.0588C0.941607 24.569 1.10719 25.0717 1.43518 25.4637L1.50918 25.5358L13.8981 13.147V12.8547L1.50918 0.465332L1.43518 0.537932Z" fill="url(#paint0_linear_0_1)"/>
<path d="M18.0276 17.2787L13.8982 13.1473V12.855L18.0286 8.72461L18.1217 8.77771L23.0144 11.5578C24.412 12.3518 24.412 13.651 23.0144 14.4455L18.1217 17.2256L18.0276 17.2787Z" fill="url(#paint1_linear_0_1)"/>
<path d="M18.1217 17.2249L13.8982 13.001L1.4353 25.4638C1.72007 25.715 2.08373 25.8586 2.46326 25.8698C2.84279 25.881 3.21429 25.7591 3.51339 25.5252L18.1217 17.2249Z" fill="url(#paint2_linear_0_1)"/>
<path d="M18.1217 8.77701L3.51339 0.476655C3.21429 0.24275 2.84279 0.120844 2.46326 0.132058C2.08372 0.143272 1.72007 0.286899 1.4353 0.538055L13.8982 13.001L18.1217 8.77701Z" fill="url(#paint3_linear_0_1)"/>
<path opacity="0.2" d="M18.0286 17.1318L3.51339 25.3791C3.22581 25.598 2.87481 25.7175 2.51339 25.7194C2.15196 25.7213 1.79971 25.6056 1.5098 25.3898L1.4353 25.4643L1.5093 25.5364L1.5098 25.5359C1.79966 25.7519 2.15193 25.8676 2.51339 25.8657C2.87485 25.8638 3.22586 25.7442 3.51339 25.5252L18.1217 17.2248L18.0286 17.1318Z" fill="#1D1D1D"/>
<path opacity="0.12" d="M1.43516 25.3185C1.10728 24.9264 0.94171 24.4238 0.972361 23.9136V24.0597C0.941691 24.5699 1.10726 25.0725 1.43516 25.4646L1.50966 25.3901L1.43516 25.3185Z" fill="#1D1D1D"/>
<path opacity="0.12" d="M23.0144 14.2988L18.0286 17.1319L18.1217 17.2249L23.0144 14.4449C23.3022 14.32 23.5513 14.1202 23.7357 13.8663C23.9201 13.6124 24.033 13.3138 24.0627 13.0015C24.0009 13.2843 23.8739 13.5488 23.6919 13.774C23.51 13.9992 23.278 14.1789 23.0144 14.2988Z" fill="#1D1D1D"/>
<path opacity="0.25" d="M3.5133 0.623341L23.0144 11.7033C23.2781 11.8231 23.5101 12.0029 23.6921 12.2282C23.8741 12.4535 24.001 12.7181 24.0627 13.0011C24.0332 12.6886 23.9203 12.3898 23.7359 12.1358C23.5515 11.8819 23.3024 11.682 23.0144 11.5572L3.5133 0.477242C2.11571 -0.316855 0.972412 0.342742 0.972412 1.94353V2.08963C0.972412 0.488941 2.11571 -0.170655 3.5133 0.623341Z" fill="white"/>
<defs>
<linearGradient id="paint0_linear_0_1" x1="12.7995" y1="1.70964" x2="-3.98286" y2="18.492" gradientUnits="userSpaceOnUse">
<stop stop-color="#00A0FF"/>
<stop offset="0.00657" stop-color="#00A1FF"/>
<stop offset="0.2601" stop-color="#00BEFF"/>
<stop offset="0.5122" stop-color="#00D2FF"/>
<stop offset="0.7604" stop-color="#00DFFF"/>
<stop offset="1" stop-color="#00E3FF"/>
</linearGradient>
<linearGradient id="paint1_linear_0_1" x1="24.8341" y1="13.0016" x2="0.637341" y2="13.0016" gradientUnits="userSpaceOnUse">
<stop stop-color="#FFE000"/>
<stop offset="0.4087" stop-color="#FFBD00"/>
<stop offset="0.7754" stop-color="#FFA500"/>
<stop offset="1" stop-color="#FF9C00"/>
</linearGradient>
<linearGradient id="paint2_linear_0_1" x1="15.8268" y1="15.2961" x2="-6.93139" y2="38.0542" gradientUnits="userSpaceOnUse">
<stop stop-color="#FF3A44"/>
<stop offset="1" stop-color="#C31162"/>
</linearGradient>
<linearGradient id="paint3_linear_0_1" x1="-1.70275" y1="-6.82373" x2="8.45972" y2="3.33874" gradientUnits="userSpaceOnUse">
<stop stop-color="#32A071"/>
<stop offset="0.0685" stop-color="#2DA771"/>
<stop offset="0.4762" stop-color="#15CF74"/>
<stop offset="0.8009" stop-color="#06E775"/>
<stop offset="1" stop-color="#00F076"/>
</linearGradient>
</defs>
</svg>
